<?xml version="1.0" encoding="utf-8"?>
<!-- Generator: Adobe Illustrator 24.3.0, SVG Export Plug-In . SVG Version: 6.00 Build 0)  -->
<svg version="1.1" id="Layer_1" xmlns="http://www.w3.org/2000/svg" xmlns:xlink="http://www.w3.org/1999/xlink" x="0px" y="0px"
	 viewBox="0 0 1920 1080" style="enable-background:new 0 0 1920 1080;" xml:space="preserve">
<style type="text/css">
	.st0{fill:#262261;}
	.st1{fill:#FAEE53;}
	.st2{fill:#FAEE49;}
	.st3{fill:#EAE861;}
	.st4{fill:none;stroke:#141949;stroke-width:0.5;stroke-miterlimit:10;}
	.st5{fill:#F3EA38;}
	.st6{fill:#141949;}
	.st7{fill:#FCEE44;}
	.st8{fill:#7E5E25;}
	.st9{fill:none;stroke:#141949;stroke-width:5;stroke-miterlimit:10;}
</style>
<g>
	
		<image style="overflow:visible;opacity:0.75;enable-background:new    ;" width="206" height="80" xlink:href="697BFA67.png"  transform="matrix(1 0 0 1 1106 532)">
	</image>
	<g>
		<g>
			<path class="st0" d="M1131.5,554.3c5.9,0.8,10.7,2.9,10.7,7.9c0,3.3-2.3,5.9-6.1,7.5c-3.3,1.4-7.3,2-12.3,2h-13.7v-1.5
				c5.6-0.3,5.9-0.5,5.9-4.6v-19.8c0-4-0.3-4.2-5.5-4.6v-1.5h16c4.8,0,7.4,0.6,9.4,1.6c2.2,1.2,3.5,3.4,3.5,5.7
				C1139.5,551.6,1134.5,553.5,1131.5,554.3L1131.5,554.3L1131.5,554.3z M1124.2,553.7c6.9,0,10-2.1,10-6.2c0-3.2-2.4-6.2-8.8-6.2
				c-1.6,0-3.2,0.2-3.7,0.5c-0.6,0.3-0.9,0.8-0.9,2.5v9.5H1124.2z M1120.8,565.5c0,3.5,1.1,4.4,5.4,4.4c5.5,0,10.2-2,10.2-7.2
				c0-5.1-4.7-7.2-12.3-7.2h-3.3V565.5z"/>
			<path class="st0" d="M1168.7,538.8c10.4,0,20.2,6.4,20.2,16.4c0,10.7-9.5,17.2-21.1,17.2c-10.9,0-20.2-6.8-20.2-16.4
				C1147.6,547.1,1155.6,538.8,1168.7,538.8L1168.7,538.8z M1167.1,540.8c-6.9,0-13.6,4.4-13.6,13.8c0,9.3,6.8,15.9,15.7,15.9
				c7.1,0,13.6-4.4,13.6-14C1182.8,546.1,1175.5,540.8,1167.1,540.8L1167.1,540.8z"/>
			<path class="st0" d="M1215.7,538.8c10.4,0,20.2,6.4,20.2,16.4c0,10.7-9.5,17.2-21.1,17.2c-10.9,0-20.2-6.8-20.2-16.4
				C1194.6,547.1,1202.7,538.8,1215.7,538.8L1215.7,538.8z M1214.1,540.8c-6.9,0-13.6,4.4-13.6,13.8c0,9.3,6.8,15.9,15.7,15.9
				c7.1,0,13.6-4.4,13.6-14C1229.9,546.1,1222.5,540.8,1214.1,540.8L1214.1,540.8z"/>
			<path class="st0" d="M1271.4,571.7c-5.1-4.5-10-9-16-14.4c-1.5-1.3-2.5-1.6-3.6-1.3v9.4c0,4.2,0.6,4.5,5.9,4.8v1.5h-16.1v-1.5
				c4.9-0.3,5.5-0.6,5.5-4.8v-19.2c0-4.5-0.6-4.6-5.8-5v-1.5h16.2v1.5c-5,0.3-5.6,0.6-5.6,5v8.4c1.5-0.3,2.7-0.9,4.4-2.1
				c3.4-2.5,7.5-5.8,10.7-8.7c1.7-1.8,1.7-2.1-0.9-2.4l-1.5-0.1v-1.5h15.1v1.5c-5,0.4-6.3,0.8-10.3,3.7c-2.2,1.5-6.9,5.2-11.3,8.8
				c4.8,4.6,12.1,10.9,14.9,13.2c3.3,2.7,4.7,3.1,7.9,3.4v1.5L1271.4,571.7L1271.4,571.7z"/>
			<path class="st1" d="M1131.4,574.3c-1-3-2.4-6.5-8-6.5c-5.1,0-7.1,2.9-7.1,5.4c0,3.7,3.2,5.5,7.9,7.4c4.6,1.8,10.9,4,10.9,9.7
				c0,5.3-5.6,9.3-13.7,9.3c-2.7,0-4.8-0.5-6.2-0.8c-1.4-0.3-2.4-0.8-2.9-1c-0.5-1.1-1.3-5-1.7-7.6l2-0.3c1,3,3.6,7.8,10,7.8
				c4.9,0,7.7-2.4,7.7-5.9c0-3.8-3.5-5.5-8.2-7.5c-3.7-1.5-10.3-3.9-10.3-9.6c0-4.7,4.8-8.7,12.7-8.7c2.5,0,5,0.4,7.9,1.2
				c0.2,1.8,0.6,3.6,1.1,6.8L1131.4,574.3z"/>
			<path class="st1" d="M1172.9,574.3c-0.6-2.3-1.1-3.5-1.8-4.3c-1-1.2-1.9-1.5-6.6-1.5h-4.8v24.1c0,3.9,0.5,4.3,6.6,4.6v1.5h-17.9
				v-1.5c5.9-0.3,6.4-0.7,6.4-4.6v-24.1h-4.4c-4.8,0-6.1,0.3-6.9,1.4c-0.7,0.8-1.2,2.2-1.9,4.3h-2c0.2-2.9,0.6-6,0.7-8.8h1.4
				c0.9,1.1,1.7,1.2,3.5,1.2h24.8c1.7,0,2-0.3,3-1.2h1.5c0,2.3,0.3,5.8,0.6,8.5L1172.9,574.3z"/>
			<path class="st1" d="M1200.7,566c10.4,0,20.2,6.4,20.2,16.4c0,10.7-9.5,17.2-21.1,17.2c-10.9,0-20.2-6.8-20.2-16.4
				C1179.6,574.2,1187.7,566,1200.7,566L1200.7,566z M1199.2,568c-6.9,0-13.6,4.4-13.6,13.8c0,9.3,6.8,15.9,15.7,15.9
				c7.1,0,13.6-4.4,13.6-14C1214.9,573.3,1207.5,568,1199.2,568L1199.2,568z"/>
			<path class="st1" d="M1263.2,599.2c-0.9,0-1.7,0-2.5-0.1c-3.9-0.1-6.6-1.2-9.7-4.4c-2.2-2.4-4.6-5.6-6.4-7.9
				c-1.1-1.3-2.2-1.9-5.7-1.9h-2.2v7.7c0,4.2,0.5,4.5,5.7,4.7v1.5h-16.4v-1.5c5.3-0.3,5.9-0.5,5.9-4.7v-19.7c0-4.2-0.6-4.3-5.6-4.6
				v-1.5h15.5c4.3,0,7.5,0.4,9.8,1.6c2.6,1.3,4.3,3.5,4.3,6.4c0,4.3-3.3,7-8,8.6c1.1,1.6,3.8,4.9,5.6,7.1c2.4,2.6,3.5,3.6,5.1,5
				c1.7,1.5,3.4,2.1,4.8,2.3L1263.2,599.2z M1240.1,583.2c3.3,0,5.3-0.5,6.9-1.5c2.5-1.5,3.6-3.4,3.6-6.1c0-5.3-4.7-7.1-9.7-7.1
				c-1.9,0-2.9,0.2-3.4,0.4c-0.6,0.3-0.7,0.9-0.7,2.3v12L1240.1,583.2L1240.1,583.2z"/>
			<path class="st1" d="M1297.4,591c-0.3,1.5-1.6,6.3-2.2,7.8h-30.4v-1.5c5.8-0.3,6.4-0.7,6.4-4.7v-19.5c0-4.3-0.6-4.4-5.6-4.8v-1.5
				h28.1c0.1,1.1,0.3,4.6,0.5,7.2l-2,0.2c-0.6-2.1-1.1-3.2-2-4.2c-0.8-1.1-2.4-1.4-6.9-1.4h-5.4c-1.9,0-2,0.1-2,1.5v11.1h6.2
				c5.7,0,6-0.4,6.7-3.7h2v9.4h-2c-0.9-3.5-1.2-3.7-6.7-3.7h-6.2v9.1c0,2.3,0.5,3.4,1.6,4.1c1.2,0.6,3.4,0.6,6.7,0.6
				c4.8,0,6.6-0.4,8-1.6c1.1-0.9,2.3-2.5,3.1-4.6L1297.4,591z"/>
		</g>
	</g>
</g>
<g>
	<path class="st2" d="M949.9,533.7l15.7,12.3l3.9,3.1c0.7,0.5,1.3,1,2,1.5c0.7,0.5,1.4,0.8,2.2,1.1c0.8,0.3,1.6,0.5,2.4,0.6
		c0.8,0.1,1.7,0.1,2.5,0.1l5,0.1l40,0.5l79.9,1v0.2l-79.9-1.2l-40-0.6l-5-0.1c-0.8,0-1.7,0-2.5-0.1c-0.8-0.1-1.7-0.3-2.4-0.6
		c-0.8-0.3-1.5-0.7-2.2-1.1c-0.7-0.5-1.3-1-2-1.5l-3.9-3.1L949.9,533.7z"/>
</g>
<g>
	<path class="st3" d="M948.3,512.2l15.8,13.7l7.9,6.9c1.3,1.2,2.9,1.9,4.6,2.3c0.8,0.2,1.7,0.2,2.6,0.2l2.6,0l41.9,0.8l83.7,1.7
		l0,0.2l-83.7-1.8l-41.9-0.9l-2.6-0.1c-0.9,0-1.8-0.1-2.6-0.2c-1.7-0.4-3.3-1.1-4.7-2.3l-7.9-6.9L948.3,512.2z"/>
</g>
<path class="st4" d="M1079.4,520.7c15.5,0,28.1,11,28.1,24.5s-12.6,24.5-28.1,24.5"/>
<g>
	<path class="st5" d="M950.6,569.7l15.8,11.9l2,1.5c0.7,0.5,1.3,1,2,1.4c1.4,0.8,3.1,1.2,4.7,1.3l9.9,0.2l39.5,0.7l79.1,1.3v0.2
		l-79.1-1.5L985,586l-9.9-0.2c-1.6-0.1-3.3-0.5-4.7-1.3c-0.7-0.4-1.4-0.9-2-1.4l-2-1.5L950.6,569.7z"/>
</g>
<g>
	<polygon class="st6" points="1082.2,569.9 971.8,568.7 971.8,568.7 971.7,568.7 948.3,551.9 971.8,568.6 971.8,568.6 1082.2,569.4 
			"/>
</g>
<g>
	<path class="st7" d="M1103.6,603.2l-78.2-1l-39.1-0.5l-9.8-0.1l-4.9-0.1c-1.6,0-3.3-0.3-4.8-1c-0.8-0.3-1.4-0.8-2.1-1.3l-2-1.4
		l-4-2.9l-7.9-5.8l7.9,5.7l4,2.9l2,1.4c0.7,0.5,1.3,1,2.1,1.3c1.5,0.7,3.1,1,4.7,1l4.9,0.1l9.8,0.1l39.1,0.5l78.2,0.9L1103.6,603.2z
		"/>
</g>
<g>
	<polygon class="st6" points="1078.2,619 966.1,615.6 966,615.6 966,615.6 949.9,603.1 966.1,615.5 966.1,615.5 1078.3,618.5 	"/>
</g>
<path class="st4" d="M1076.2,569.7c15.5,0,30.2,11,30.2,24.5s-12.6,24.5-28.1,24.5"/>
<g>
	<polygon class="st6" points="947,490.1 979.8,519.3 979.8,519.2 1080.2,520.4 1080.2,520.9 979.8,519.4 979.8,519.4 979.8,519.4 	
		"/>
</g>
<g>
	<path class="st6" d="M1089.2,522.2l-36.4-27l-18.2-13.5l-9.1-6.8c-1.5-1.1-3.2-2-5-2.6c-0.9-0.3-1.8-0.6-2.7-0.8
		c-0.9-0.2-1.9-0.4-2.8-0.2h0l-50.3,16.1l0-0.1l21.4,21.6l-21.4-21.6l0,0l0.1,0l50.2-16.3h0l0,0c1-0.2,1.9,0,2.9,0.2
		c0.9,0.2,1.8,0.5,2.7,0.9c1.8,0.7,3.5,1.5,5,2.7l9.1,6.7l18.2,13.5l36.5,26.9L1089.2,522.2z"/>
</g>
<g>
	
		<image style="overflow:visible;opacity:0.75;enable-background:new    ;" width="99" height="94" xlink:href="697BFA65.png"  transform="matrix(1 0 0 1 998 427)">
	</image>
	<g>
		<path class="st8" d="M1003.1,473.7c0-2.4,0.5-4.8,1.1-7.1c0.6-2.3,1.2-4.6,2-6.9c0.7-2.3,1.5-4.5,2.3-6.8l1.2-3.4
			c0.4-1.1,0.8-2.3,1.4-3.4c2.3-4.5,6.2-7.9,10.7-10c4.5-2.1,9.6-2.8,14.6-2.2c1.2,0.2,2.5,0.4,3.7,0.7l3.4,0.9l6.9,1.9
			c1.2,0.3,2.3,0.6,3.5,1c1.2,0.4,2.3,0.8,3.5,1.3c2.3,1,4.4,2.1,6.5,3.4c4.2,2.5,8.1,5.5,11.5,9c1.7,1.8,3.3,3.7,4.6,5.9
			c1.3,2.2,2.3,4.7,2.2,7.5c0,0.7-0.1,1.4-0.2,2.1c-0.1,0.4-0.2,0.7-0.3,1l-0.3,0.9l-1.2,3.4l-2.3,6.7l-4.7,13.5l-2.4,6.7l-0.6,1.7
			c-0.2,0.5-0.4,1.2-0.7,1.8c-0.6,1.2-1.6,2.4-2.8,3.1c-2.4,1.5-5,1.9-7.5,1.9c-2.5,0-4.9-0.4-7.3-0.9c-4.8-1-9.3-2.6-13.8-4.4
			c-4.4-1.8-8.8-3.9-13-6.1s-8.3-4.7-12.3-7.3c-2-1.3-4-2.7-5.8-4.1c-0.9-0.7-1.9-1.5-2.7-2.3c-0.4-0.4-0.8-0.9-1.2-1.3
			c-0.2-0.2-0.4-0.5-0.5-0.8c-0.1-0.3-0.2-0.6,0-0.9c-0.2,0.3,0,0.6,0.1,0.8c0.1,0.3,0.3,0.5,0.5,0.7c0.4,0.4,0.8,0.9,1.3,1.2
			c0.9,0.8,1.9,1.5,2.8,2.2c1.9,1.4,4,2.6,6,3.9c4.1,2.4,8.3,4.7,12.6,6.7c8.6,4.1,17.4,7.8,26.6,9.6c2.3,0.4,4.6,0.7,6.9,0.7
			c2.2,0,4.5-0.5,6.1-1.6c0.8-0.6,1.4-1.3,1.9-2.2c0.4-0.8,0.7-2.1,1.1-3.2l2.3-6.8l4.6-13.5l2.3-6.8l1.2-3.4l0.3-0.8
			c0.1-0.2,0.2-0.5,0.2-0.7c0.1-0.5,0.2-1,0.2-1.5c0-2-0.8-4.1-1.9-6c-1.1-1.9-2.6-3.7-4.1-5.4c-3.2-3.3-6.9-6.2-10.9-8.6
			c-2-1.2-4-2.3-6.2-3.2c-1.1-0.5-2.1-0.9-3.2-1.2c-1.1-0.3-2.3-0.7-3.4-1l-6.9-2l-3.4-1c-1.1-0.3-2.2-0.5-3.3-0.7
			c-4.5-0.7-9.2-0.1-13.4,1.7c-4.2,1.8-7.9,4.8-10.2,8.8c-0.6,1-1,2.1-1.5,3.2l-1.4,3.3c-0.9,2.2-1.8,4.4-2.6,6.6
			c-0.8,2.2-1.6,4.5-2.3,6.7C1004,469,1003.2,471.3,1003.1,473.7z"/>
	</g>
</g>
<g>
	<path class="st2" d="M949.9,533.7l15.8,12.2l4,3c0.7,0.5,1.3,1,2,1.5c0.7,0.4,1.4,0.8,2.2,1.1c0.8,0.3,1.5,0.5,2.3,0.5
		c0.8,0.1,1.6,0.1,2.5,0.1l5,0l40,0.2l79.9,0.4l0,3l-79.9-1.8l-40-0.9l-5-0.1c-0.8,0-1.7,0-2.5-0.1c-0.8-0.1-1.7-0.3-2.5-0.6
		s-1.6-0.7-2.3-1.2c-0.7-0.5-1.3-1-2-1.6l-3.9-3.1L949.9,533.7z"/>
</g>
<g>
	<path class="st2" d="M950.9,533.7l15.8,12.2l4,3c0.7,0.5,1.3,1,2,1.5c0.7,0.4,1.4,0.8,2.2,1.1c0.8,0.3,1.5,0.5,2.3,0.5
		c0.8,0.1,1.6,0.1,2.5,0.1l5,0l40,0.2l79.9,0.4l0,3l-79.9-1.8l-40-0.9l-5-0.1c-0.8,0-1.7,0-2.5-0.1c-0.8-0.1-1.7-0.3-2.5-0.6
		s-1.6-0.7-2.3-1.2c-0.7-0.5-1.3-1-2-1.6l-3.9-3.1L950.9,533.7z"/>
</g>
<g>
	<path class="st3" d="M948.3,512.2l15.9,13.6l8,6.8c1.3,1.1,2.9,1.8,4.5,2.2c0.8,0.2,1.7,0.2,2.5,0.2l2.6,0l41.9,0.5l83.7,1l-0.1,3
		l-83.7-2.5l-41.8-1.2l-2.6-0.1c-0.9,0-1.8-0.1-2.7-0.3c-1.8-0.4-3.4-1.2-4.8-2.4l-7.8-7L948.3,512.2z"/>
</g>
<g>
	
		<image style="overflow:visible;opacity:0.75;enable-background:new    ;" width="37" height="61" xlink:href="697BFA6B.png"  transform="matrix(1 0 0 1 1078 516)">
	</image>
	<g>
		<path class="st9" d="M1079.4,520.7c15.5,0,28.1,11,28.1,24.5s-12.6,24.5-28.1,24.5"/>
	</g>
</g>
<g>
	<path class="st5" d="M950.6,569.7l15.9,11.8l2,1.5c0.7,0.5,1.3,1,2,1.4c1.4,0.8,3,1.2,4.6,1.2l9.9,0.1l39.5,0.3l79.1,0.7l-0.1,3
		l-79.1-2.2l-39.5-1.1l-9.9-0.3c-1.7-0.1-3.4-0.5-4.8-1.4c-0.7-0.4-1.4-1-2-1.5l-2-1.5L950.6,569.7z"/>
</g>
<g>
	
		<image style="overflow:visible;opacity:0.75;enable-background:new    ;" width="141" height="28" xlink:href="697BFA6D.png"  transform="matrix(1 0 0 1 947 549)">
	</image>
	<g>
		<polygon class="st6" points="1082.2,572.2 971.8,569.2 971.6,569.2 971.4,569.1 948.3,551.9 972.1,568.2 971.8,568.1 
			1082.3,567.2 		"/>
	</g>
</g>
<g>
	<path class="st7" d="M1103.5,604.6l-78.2-1.7l-39.1-0.8l-9.8-0.2l-4.9-0.1c-1.7,0-3.3-0.3-4.8-1c-0.8-0.3-1.5-0.8-2.1-1.3l-2-1.5
		l-3.9-2.9l-7.8-5.8l8,5.6l4,2.8l2,1.4c0.7,0.5,1.3,0.9,2,1.2c1.5,0.7,3,1,4.7,0.9l4.9,0l9.8,0l39.1,0.1l78.2,0.2L1103.5,604.6z"/>
</g>
<g>
	
		<image style="overflow:visible;opacity:0.75;enable-background:new    ;" width="136" height="25" xlink:href="697BFA6F.png"  transform="matrix(1 0 0 1 948 601)">
	</image>
	<g>
		<polygon class="st6" points="1078.2,621.2 966,616 965.9,616 965.8,615.9 949.9,603.1 966.3,615.2 966.1,615.2 1078.3,616.2 		"/>
	</g>
</g>
<g>
	
		<image style="overflow:visible;opacity:0.75;enable-background:new    ;" width="39" height="61" xlink:href="697BFA6C.png"  transform="matrix(1 0 0 1 1075 565)">
	</image>
	<g>
		<path class="st9" d="M1076.2,569.7c15.5,0,30.2,11,30.2,24.5s-12.6,24.5-28.1,24.5"/>
	</g>
</g>
<g>
	
		<image style="overflow:visible;opacity:0.75;enable-background:new    ;" width="140" height="40" xlink:href="697BFA64.png"  transform="matrix(1 0 0 1 946 488)">
	</image>
	<g>
		<polygon class="st6" points="947,490.1 980.3,518.8 979.8,518.6 1080.2,518.2 1080.2,523.2 979.8,520.1 979.5,520.1 979.3,519.9 
					"/>
	</g>
</g>
<g>
	
		<image style="overflow:visible;opacity:0.75;enable-background:new    ;" width="133" height="62" xlink:href="697BFA66.png"  transform="matrix(1 0 0 1 963 467)">
	</image>
	<g>
		<path class="st6" d="M1087.9,524l-36-27.5l-18-13.7l-9-6.9c-1.3-1.1-3-1.9-4.6-2.5c-0.8-0.3-1.7-0.6-2.5-0.8
			c-0.8-0.2-1.7-0.3-2.2-0.2l0.1,0L965,487.8l0.2-0.7l21.1,21.9l-21.7-21.3l-0.5-0.5l0.7-0.2l50-17l0,0l0,0c1.3-0.3,2.4-0.1,3.4,0.1
			c1,0.2,2,0.5,2.9,0.9c1.8,0.7,3.7,1.5,5.3,2.8l9.2,6.6l18.4,13.2l36.8,26.4L1087.9,524z"/>
	</g>
</g>
</svg>
